<?xml version="1.0" standalone="no"?>
<!DOCTYPE svg PUBLIC "-//W3C//DTD SVG 20010904//EN"
 "http://www.w3.org/TR/2001/REC-SVG-20010904/DTD/svg10.dtd">
<svg version="1.0" xmlns="http://www.w3.org/2000/svg"
 width="5334.000000pt" height="3000.000000pt" viewBox="0 0 5334.000000 3000.000000"
 preserveAspectRatio="xMidYMid meet">
<metadata>
Created by potrace 1.16, written by Peter Selinger 2001-2019
</metadata>
<g transform="translate(0.000000,3000.000000) scale(0.100000,-0.100000)"
fill="#000000" stroke="none">
<path d="M1000 15000 l0 -14000 25665 0 25665 0 0 14000 0 14000 -25665 0
-25665 0 0 -14000z m23160 1080 l0 -1740 -360 0 -360 0 0 1740 0 1740 360 0
360 0 0 -1740z m3635 1508 c337 -343 771 -784 1100 -1118 159 -162 432 -439
605 -615 173 -176 445 -453 605 -615 159 -162 422 -430 585 -595 l295 -300
-500 -3 -500 -3 -84 88 c-46 48 -249 255 -450 458 -777 785 -1810 1833 -1871
1898 -34 37 -67 67 -71 67 -5 0 -9 -552 -9 -1255 l0 -1255 -355 0 -355 0 0
1740 0 1740 388 0 388 0 229 -232z m3152 -223 l2 -450 -438 445 c-241 245
-438 447 -436 450 2 3 198 5 437 5 l433 0 2 -450z m3349 -272 l0 -728 1617 -3
1617 -2 0 -1010 0 -1010 -355 0 -355 0 0 715 0 715 -1262 0 -1263 0 1 -715 1
-715 -359 0 -358 0 0 1740 0 1740 358 0 359 0 -1 -727z m3222 274 c1 -246 0
-447 -4 -447 -3 0 -130 127 -282 283 -152 155 -347 354 -434 442 -86 88 -155
162 -153 165 2 3 198 5 437 5 l433 0 3 -448z m-20023 -687 c456 -621 832
-1130 835 -1130 3 0 378 509 834 1130 l830 1130 429 0 c236 0 427 -4 425 -8
-8 -20 -2512 -3432 -2518 -3432 -8 0 -2520 3425 -2520 3435 0 3 192 5 428 5
l427 0 830 -1130z m-1304 -1807 c199 -274 366 -504 372 -510 7 -10 -67 -13
-367 -13 l-376 0 0 510 c0 281 2 510 4 510 3 0 168 -224 367 -497z m4619 -13
l0 -510 -371 0 c-221 0 -369 4 -367 9 3 11 732 1011 736 1011 1 0 2 -229 2
-510z m8070 -1821 c54 -12 163 -64 184 -88 15 -16 12 -23 -30 -79 l-46 -62
-32 20 c-131 88 -292 93 -326 9 -16 -37 -6 -72 25 -93 14 -9 83 -32 155 -51
237 -63 290 -109 290 -251 0 -116 -62 -202 -174 -241 -63 -22 -228 -24 -301
-4 -86 24 -215 97 -215 120 0 5 21 34 47 65 44 53 48 55 68 41 48 -36 161 -84
211 -91 107 -13 184 25 184 92 0 45 -26 70 -92 88 -29 8 -96 26 -148 41 -169
47 -229 104 -237 223 -4 59 -1 74 24 121 52 101 146 150 288 150 44 0 100 -4
125 -10z m-4124 -32 c34 -16 76 -43 92 -60 103 -106 98 -295 -10 -393 -73 -65
-114 -78 -280 -82 l-148 -4 0 -134 c0 -127 -1 -134 -20 -135 -11 -1 -50 -2
-87 -2 l-68 -1 -3 423 -2 423 232 -4 c232 -3 233 -3 294 -31z m1130 -384 c94
-230 169 -420 168 -422 -5 -6 -185 -7 -193 -1 -3 3 -18 32 -32 65 l-25 60
-189 0 -189 0 -25 -60 c-14 -33 -28 -62 -32 -65 -10 -7 -178 -4 -186 3 -3 4
70 193 163 422 l169 415 100 0 101 0 170 -417z m1139 396 c90 -28 166 -99 189
-178 20 -68 20 -104 1 -167 -23 -79 -59 -119 -159 -179 -15 -9 -4 -28 82 -150
55 -77 98 -142 97 -145 -6 -10 -197 -3 -204 7 -3 5 -46 66 -95 136 l-90 127
-68 0 -67 0 -3 -137 -3 -137 -85 0 -85 0 -3 422 -2 422 214 0 c188 0 222 -3
281 -21z m893 -401 l-3 -423 -87 -3 -88 -3 0 426 0 425 90 0 90 0 -2 -422z"/>
<path d="M24410 12753 l0 -125 118 4 c131 4 171 18 197 68 31 60 10 126 -51
155 -27 13 -67 18 -151 20 l-113 3 0 -125z"/>
<path d="M25603 12764 c-3 -10 -31 -77 -60 -148 -29 -71 -53 -130 -53 -132 0
-2 56 -4 125 -4 69 0 125 1 125 3 0 7 -118 288 -123 293 -4 4 -10 -2 -14 -12z"/>
<path d="M26710 12750 l0 -120 98 0 c116 0 166 12 204 50 22 23 28 38 28 72 0
93 -45 118 -210 118 l-120 0 0 -120z"/>
</g>
</svg>
